HIERARCHY
ROOT Hips
{
 OFFSET 0.000000 0.000000 0.000000
 CHANNELS 6 Xposition Yposition Zposition Yrotation Xrotation Zrotation
 JOINT Chest
 {
  OFFSET 0.000000 9.588913 -0.003946
  CHANNELS 3 Yrotation Xrotation Zrotation
  JOINT Chest2
  {
   OFFSET 0.000000 9.541882 0.008053
   CHANNELS 3 Yrotation Xrotation Zrotation
   JOINT Chest3
   {
    OFFSET 0.000000 9.501360 0.000000
    CHANNELS 3 Yrotation Xrotation Zrotation
    JOINT Chest4
    {
     OFFSET 0.000000 9.491660 0.000000
     CHANNELS 3 Yrotation Xrotation Zrotation
     JOINT Neck
     {
      OFFSET 0.000000 14.331917 0.000000
      CHANNELS 3 Yrotation Xrotation Zrotation
      JOINT Head
      {
       OFFSET 0.000000 8.884799 0.017034
       CHANNELS 3 Yrotation Xrotation Zrotation
       End Site
       {
        OFFSET 0.000000 16.896195 0.008993
       }
      }
     }
     JOINT RightCollar
     {
      OFFSET -2.923010 9.499495 0.000000
      CHANNELS 3 Yrotation Xrotation Zrotation
      JOINT RightShoulder
      {
       OFFSET -13.795216 0.000000 0.000000
       CHANNELS 3 Yrotation Xrotation Zrotation
       JOINT RightElbow
       {
        OFFSET -30.272209 0.000000 0.000000
        CHANNELS 3 Yrotation Xrotation Zrotation
        JOINT RightWrist
        {
         OFFSET -24.478199 0.000000 0.000000
         CHANNELS 3 Yrotation Xrotation Zrotation
         End Site
         {
          OFFSET -18.090752 0.000000 0.000000
         }
        }
       }
      }
     }
     JOINT LeftCollar
     {
      OFFSET 2.923010 9.499495 0.000000
      CHANNELS 3 Yrotation Xrotation Zrotation
      JOINT LeftShoulder
      {
       OFFSET 13.795216 0.000000 0.000000
       CHANNELS 3 Yrotation Xrotation Zrotation
       JOINT LeftElbow
       {
        OFFSET 30.272209 0.000000 0.000000
        CHANNELS 3 Yrotation Xrotation Zrotation
        JOINT LeftWrist
        {
         OFFSET 24.478199 0.000000 0.000000
         CHANNELS 3 Yrotation Xrotation Zrotation
         End Site
         {
          OFFSET 18.090752 0.000000 0.000000
         }
        }
       }
      }
     }
    }
   }
  }
 }
 JOINT RightHip
 {
  OFFSET -7.826875 0.019532 0.001973
  CHANNELS 3 Yrotation Xrotation Zrotation
  JOINT RightKnee
  {
   OFFSET 0.000000 -40.546152 -0.001885
   CHANNELS 3 Yrotation Xrotation Zrotation
   JOINT RightAnkle
   {
    OFFSET 0.000000 -39.417092 -0.003189
    CHANNELS 3 Yrotation Xrotation Zrotation
    JOINT RightToe
    {
     OFFSET 0.000000 -7.579396 17.243563
     CHANNELS 3 Yrotation Xrotation Zrotation
     End Site
     {
      OFFSET 0.000000 -1.500329 6.694466
     }
    }
   }
  }
 }
 JOINT LeftHip
 {
  OFFSET 7.826875 0.019532 0.001973
  CHANNELS 3 Yrotation Xrotation Zrotation
  JOINT LeftKnee
  {
   OFFSET 0.000000 -40.546152 -0.001885
   CHANNELS 3 Yrotation Xrotation Zrotation
   JOINT LeftAnkle
   {
    OFFSET 0.000000 -39.417092 -0.003189
    CHANNELS 3 Yrotation Xrotation Zrotation
    JOINT LeftToe
    {
     OFFSET 0.000000 -7.579396 17.243563
     CHANNELS 3 Yrotation Xrotation Zrotation
     End Site
     {
      OFFSET 0.000000 -1.500329 6.694466
     }
    }
   }
  }
 }
}
MOTION
Frames: 8
Frame Time: 0.008333
-4.071772 30.997363 -12.677618 50.545403 -9.916806 4.776251 1.766665 15.460116 5.171092 0.830147 8.854496 2.797900 1.109535 11.060855 3.528341 0.830147 8.854496 2.797901 -7.051794 4.558193 -5.928133 -6.709294 -21.229982 -5.092019 15.211010 -3.748431 -10.238675 23.335114 -54.615732 42.090666 74.317783 -14.314338 3.764661 10.314869 -7.601206 -13.927493 -14.027309 -5.138403 -3.217094 6.245942 -26.814261 -73.494376 -35.204784 1.199058 -10.964064 5.964976 0.085580 -7.926480 56.676198 -71.755302 -79.421272 165.358621 24.603898 -178.375141 13.956507 -36.679084 2.933234 4.416649 -22.250087 -22.333148 41.076477 -88.267003 -38.781532 170.798424 25.120430 174.308456 -13.009899 -29.083549 -7.515962 -2.176103 -26.426158 9.306526
-4.072833 30.987221 -12.692071 50.584499 -9.934362 4.769059 1.746820 15.475515 5.163095 0.822801 8.862477 2.794060 1.100301 11.070900 3.523384 0.822801 8.862477 2.794060 -7.046421 4.567633 -5.936313 -6.700273 -21.219071 -5.102690 15.219051 -3.749431 -10.251785 23.342765 -54.621930 42.068876 74.333316 -14.329953 3.763751 10.319691 -7.596038 -13.923655 -14.015385 -5.144713 -3.241726 6.223963 -26.758838 -73.451402 -35.124460 1.174577 -10.912362 5.944788 0.080134 -7.927333 56.692296 -71.770967 -79.428582 165.382177 24.600201 -178.384163 13.911453 -36.682714 2.952095 4.407439 -22.239534 -22.291213 41.884123 -88.269741 -39.616134 170.800862 25.115769 174.306964 -13.018978 -29.079690 -7.488748 -2.177538 -26.399896 9.314413
-4.074619 30.976127 -12.707133 50.626316 -9.948999 4.761091 1.727735 15.488908 5.155434 0.815291 8.869698 2.790527 1.090863 11.079994 3.518805 0.815291 8.869698 2.790527 -7.041442 4.577252 -5.943967 -6.691844 -21.207950 -5.112629 15.229647 -3.748890 -10.264387 23.344687 -54.632344 42.047251 74.346721 -14.338947 3.768069 10.328472 -7.589762 -13.922236 -14.001182 -5.151318 -3.266994 6.205527 -26.701073 -73.405747 -35.038626 1.154764 -10.865836 5.931758 0.074920 -7.933909 56.711306 -71.786581 -79.438171 165.407616 24.595249 -178.388018 13.854170 -36.694189 2.985488 4.397266 -22.228730 -22.250457 42.804199 -88.270579 -40.565133 170.807880 25.111710 174.305702 -13.003246 -29.083018 -7.480915 -2.174693 -26.369203 9.325607
-4.076751 30.963997 -12.722869 50.671684 -9.961702 4.753120 1.710139 15.500811 5.148007 0.807450 8.875526 2.787075 1.080998 11.087349 3.514312 0.807450 8.875526 2.787075 -7.037655 4.587962 -5.950601 -6.685035 -21.195568 -5.121016 15.242735 -3.742835 -10.274634 23.340105 -54.648236 42.024402 74.359856 -14.343227 3.775132 10.336679 -7.585395 -13.918146 -13.987007 -5.155029 -3.291085 6.191570 -26.642522 -73.364727 -34.943717 1.143199 -10.819043 5.922856 0.070234 -7.943896 56.737759 -71.800381 -79.455847 165.431529 24.588496 -178.389328 13.786167 -36.710771 3.027967 4.386187 -22.217759 -22.208393 43.807341 -88.269679 -41.598438 170.817482 25.107606 174.307267 -12.985514 -29.094083 -7.473178 -2.171958 -26.332610 9.338814
-4.078890 30.950767 -12.738910 50.716739 -9.974667 4.744356 1.693588 15.511195 5.141547 0.800245 8.880526 2.783854 1.071931 11.093664 3.510120 0.800245 8.880526 2.783854 -7.035977 4.600304 -5.956669 -6.680801 -21.181323 -5.128150 15.255154 -3.732971 -10.283438 23.337501 -54.662155 41.999335 74.375915 -14.341589 3.777676 10.341418 -7.585348 -13.912702 -13.971584 -5.155675 -3.314481 6.184219 -26.582286 -73.335135 -34.837574 1.138973 -10.768858 5.914625 0.069967 -7.956161 56.769918 -71.813859 -79.477993 165.454519 24.580704 -178.392541 13.722964 -36.728258 3.064387 4.374312 -22.203544 -22.163024 44.776964 -88.269746 -42.594683 170.824297 25.101355 174.307700 -12.975845 -29.109094 -7.460719 -2.171305 -26.292535 9.352975
-4.081006 30.936324 -12.755238 50.760536 -9.987776 4.733981 1.677025 15.519943 5.136074 0.793662 8.885222 2.780942 1.063647 11.099593 3.506330 0.793662 8.885222 2.780943 -7.035510 4.614089 -5.962882 -6.677905 -21.165431 -5.135101 15.267188 -3.724308 -10.293414 23.341386 -54.669277 41.972529 74.392546 -14.337203 3.775568 10.346766 -7.587141 -13.908363 -13.952352 -5.154666 -3.337787 6.180119 -26.519911 -73.313552 -34.718849 1.136686 -10.711694 5.906690 0.073855 -7.970994 56.808137 -71.830846 -79.505144 165.480806 24.572042 -178.398032 13.668510 -36.744454 3.095436 4.362086 -22.186335 -22.117047 45.700987 -88.273961 -43.541905 170.829698 25.092754 174.305975 -12.970326 -29.124805 -7.447388 -2.171424 -26.250740 9.367943
-4.082878 30.920611 -12.772127 50.804561 -10.001146 4.723147 1.660159 15.527813 5.129316 0.787165 8.889782 2.778424 1.055479 11.105350 3.503034 0.787165 8.889782 2.778424 -7.034924 4.628644 -5.968609 -6.674937 -21.148638 -5.141469 15.280416 -3.718858 -10.304259 23.348593 -54.671415 41.945070 74.408696 -14.335081 3.774314 10.353230 -7.586953 -13.904241 -13.929815 -5.152998 -3.361067 6.170985 -26.454545 -73.291415 -34.588375 1.132592 -10.644899 5.898529 0.076995 -7.987709 56.856606 -71.850785 -79.543989 165.511845 24.561340 -178.403267 13.615068 -36.757494 3.130623 4.350148 -22.170246 -22.073197 46.622661 -88.280596 -44.486499 170.837384 25.082957 174.304349 -12.969846 -29.141719 -7.426880 -2.173443 -26.206194 9.382062
-4.084550 30.903602 -12.789181 50.847822 -10.016257 4.709747 1.644140 15.535835 5.122243 0.780901 8.894152 2.776366 1.047613 11.110866 3.500319 0.780901 8.894152 2.776366 -7.034126 4.643462 -5.973418 -6.671923 -21.131522 -5.146784 15.297231 -3.716704 -10.315133 23.350636 -54.669550 41.922213 74.426234 -14.337401 3.773975 10.357473 -7.583979 -13.899294 -13.906202 -5.150462 -3.383617 6.158825 -26.383206 -73.268268 -34.447768 1.126476 -10.567719 5.889759 0.078484 -8.006413 56.908140 -71.875224 -79.586141 165.546645 24.548710 -178.408317 13.561370 -36.766169 3.169174 4.338882 -22.156210 -22.031307 47.499274 -88.287879 -45.385965 170.844709 25.070846 174.302773 -12.972072 -29.161760 -7.400474 -2.176336 -26.159094 9.393967
